# xmcd
#
# Track frame offsets:
#	150
#	18948
#	36947
#	63961
#	78856
#	93635
#	115138
#	138847
#	156063
#	177453
#	200436
#	233450
#	252604
#
# Disc length: 3587 seconds
#
# Revision: 1
# Processed by: cddbd v1.5.1PL2 Copyright (c) Steve Scherf et al.
# Submitted via: audiograbber 1.83.01
#
DISCID=a30e010d
DTITLE=Aranyág Alapítvány - Ártatlan világ
DYEAR=1999
DGENRE=
TTITLE0= Ártatlan világ
TTITLE1=Unisex - Egy mosoly
TTITLE2=Tátrai Band - New York, New York
TTITLE3=Bon-Bon - Van még egy hely
TTITLE4=Auth Csilla - Féltelek
TTITLE5=Somló Tamás - Gondolsz-e rám
TTITLE6=Keresztes Ildikó - Holnap
TTITLE7=Roy and Ádám - Lehetsz bárhol
TTITLE8=Orsi - Bolondos világ
TTITLE9=Kimnowak - Gyémánt
TTITLE10=Vikidál Gyula - Az élet szép
TTITLE11=Charlie/Somló Tamás - Vallomás
TTITLE12=Balázs Fecó - Érints meg
EXTD=
EXTT0=
EXTT1=
EXTT2=
EXTT3=
EXTT4=
EXTT5=
EXTT6=
EXTT7=
EXTT8=
EXTT9=
EXTT10=
EXTT11=
EXTT12=
PLAYORDER=
